<?xml version="1.0" standalone="no"?><!DOCTYPE svg PUBLIC "-//W3C//DTD SVG 1.1//EN" "http://www.w3.org/Graphics/SVG/1.1/DTD/svg11.dtd"><svg height="1024" node-id="1" sillyvg="true" template-height="1024" template-width="1024" version="1.1" viewBox="0 0 1024 1024" width="1024" xmlns="http://www.w3.org/2000/svg" xmlns:xlink="http://www.w3.org/1999/xlink"><defs node-id="49"><clipPath id="master_svg0_8_033" node-id="3"><path d="M 0.00 0.00 L 1024.00 0.00 L 1024.00 1024.00 L 0.00 1024.00 Z" fill="#000000" fill-rule="nonzero" node-id="52" stroke="none" target-height="1024" target-width="1024" target-x="0" target-y="0"></path></clipPath><mask height="1565.9265" id="master_svg1_8_035" maskUnits="userSpaceOnUse" node-id="5" width="1605.9905" x="-289.57373" y="-200.53424"><path d="M 940.18 756.83 C 890.87 877.50 795.64 973.64 675.44 1024.10 C 555.24 1074.56 419.92 1075.20 299.25 1025.89 C 178.58 976.57 82.44 881.34 31.98 761.14 C -18.47 640.94 -19.12 505.62 30.20 384.95 C 79.51 264.28 174.74 168.14 294.94 117.68 C 415.14 67.23 550.46 66.59 671.13 115.90 C 791.80 165.21 887.94 260.44 938.40 380.64 C 988.86 500.84 989.50 636.16 940.18 756.83 Z" fill="#ffffff" fill-rule="nonzero" node-id="58" stroke="none" target-height="1008.6146" target-width="1008.6146" target-x="-19.115738" target-y="66.58505"></path></mask></defs><g clip-path="url(#master_svg0_8_033)" id="sillyvg_g_1" node-id="63"><path d="M 1005.57 512.00 C 1005.57 642.36 953.78 767.38 861.61 859.56 C 769.43 951.74 644.41 1003.52 514.05 1003.52 C 383.69 1003.52 258.67 951.74 166.49 859.56 C 74.31 767.38 22.53 642.36 22.53 512.00 C 22.53 381.64 74.31 256.62 166.49 164.44 C 258.67 72.26 383.69 20.48 514.05 20.48 C 644.41 20.48 769.43 72.26 861.61 164.44 C 953.78 256.62 1005.57 381.64 1005.57 512.00 Z" fill="#e7e5ce" fill-rule="nonzero" group-id="1" node-id="67" stroke="none" target-height="983.04004" target-width="983.04004" target-x="22.528015" target-y="20.47998"></path><path d="M 111.00 142.50 C 130.33 152.50 144.33 167.83 153.00 188.50 C 168.44 225.32 180.50 283.50 191.50 311.00 C 198.28 327.95 212.12 346.29 233.00 366.00 C 214.67 354.67 200.17 337.33 189.50 314.00 C 179.57 292.28 164.50 230.00 155.50 204.00 C 149.50 186.67 140.17 171.33 127.50 158.00 C 115.17 173.67 110.33 187.00 113.00 198.00 C 117.00 191.33 121.83 185.83 127.50 181.50 C 112.17 201.17 110.00 226.50 121.00 257.50 C 124.67 248.83 130.75 240.00 139.26 231.00 C 125.75 255.00 122.17 273.50 128.50 286.50 C 131.17 280.83 133.83 276.17 136.50 272.50 C 132.50 299.50 145.67 325.00 176.00 349.00 C 175.33 337.00 177.17 326.17 181.50 316.50 C 179.83 344.17 190.67 363.83 214.00 375.50 C 244.02 390.51 269.00 388.00 269.00 382.50 C 269.00 377.00 262.50 364.00 251.00 353.50 C 243.33 346.50 233.17 342.50 220.50 341.50 C 226.17 338.50 232.50 337.50 239.50 338.50 C 208.00 312.50 211.50 259.50 194.00 237.00 C 188.02 229.32 181.69 223.98 175.00 221.00 C 182.33 220.33 189.50 223.00 196.50 229.00 C 191.00 198.50 181.14 184.80 156.50 178.00 C 160.50 175.33 169.17 176.50 182.50 181.50 C 178.83 169.83 169.00 164.00 153.00 164.00 C 155.67 162.33 161.00 161.33 169.00 161.00 C 168.40 160.78 167.60 160.45 166.64 160.04 C 160.42 157.41 147.33 151.87 136.50 157.50 C 131.50 152.00 120.50 139.50 113.00 138.00 L 111.00 142.50 Z" fill="#ff8848" fill-rule="nonzero" group-id="2" node-id="72" stroke="none" target-height="252.50833" target-width="159" target-x="110" target-y="138"></path><path d="M 250.71 852.21 C 243.71 877.21 271.42 908.93 332.71 911.21 C 392.97 913.46 505.82 903.56 560.45 861.41 C 562.18 860.08 564.46 859.74 566.54 860.40 C 644.21 885.33 958.96 806.46 975.71 789.71 C 992.71 772.71 1023.71 750.21 1058.21 602.21 C 1090.29 464.59 1021.21 372.36 998.13 352.07 C 995.78 350.00 994.67 346.41 995.24 343.33 C 1001.96 306.81 1001.12 120.91 843.21 95.21 C 731.80 77.09 679.21 175.21 679.21 211.21 C 679.21 247.21 718.21 255.21 740.71 239.21 C 746.20 235.31 751.21 228.81 756.75 221.65 C 773.89 199.44 796.01 170.79 852.71 192.71 C 885.59 205.43 892.31 245.30 872.85 312.34 C 872.17 314.69 870.10 316.36 867.67 316.60 C 836.66 319.66 813.01 324.86 796.71 332.21 C 715.98 368.62 727.71 435.21 710.71 454.21 C 699.67 466.55 679.45 470.19 650.06 465.13 C 648.55 464.87 647.00 465.18 645.71 466.02 C 488.68 568.33 407.02 641.57 400.71 685.71 C 391.21 752.21 325.21 824.71 309.21 836.21 C 302.60 840.96 292.66 840.25 282.77 839.55 C 268.74 838.54 254.82 837.54 250.71 852.21 Z" fill="#6f5fdc" fill-rule="nonzero" group-id="3,6" node-id="79" stroke="none" target-height="836.3761" target-width="846.58044" target-x="243.71034" target-y="77.085304"></path><path d="M 716.26 758.75 C 684.23 782.99 608.16 840.51 612.71 871.21 C 616.71 898.21 635.21 910.71 667.71 906.21 C 689.38 903.21 737.38 871.55 811.71 811.21 L 724.21 752.71 C 722.05 754.38 719.36 756.41 716.26 758.75 Z" fill="#6f5fdc" fill-rule="nonzero" group-id="3,7" node-id="84" stroke="none" target-height="158" target-width="203.54913" target-x="608.16144" target-y="752.71265"></path><path d="M 762.98 849.52 C 764.55 848.33 766.13 847.13 767.73 845.92 C 711.26 856.74 654.33 864.81 612.76 865.22 C 612.56 866.61 612.54 868.61 612.71 871.21 C 641.86 869.69 668.95 867.12 694.00 863.50 C 719.05 859.88 742.04 855.22 762.98 849.52 Z" fill="#000000" fill-rule="evenodd" group-id="3,8" node-id="89" stroke="none" target-height="25.29657" target-width="155.18683" target-x="612.54016" target-y="845.91614"></path><path d="M 437.00 715.50 C 430.50 734.00 490.14 857.60 683.50 846.00 C 858.50 835.50 967.74 744.63 947.50 605.00 C 940.49 556.61 914.30 594.53 883.75 638.75 C 870.74 657.58 856.94 677.56 843.50 692.50 C 837.39 699.29 831.35 706.60 825.12 714.16 C 785.43 762.25 737.67 820.12 611.50 814.50 C 504.45 809.73 464.06 748.79 447.57 723.90 C 441.57 714.85 438.73 710.56 437.00 715.50 Z" fill="#ffffff" fill-rule="nonzero" group-id="3,9" node-id="94" stroke="none" target-height="300.98975" target-width="537.2363" target-x="430.50015" target-y="556.61255"></path><path d="M 786.33 840.59 C 778.61 866.65 772.18 888.39 779.21 908.71 C 788.15 934.56 845.33 932.46 860.70 929.21 C 922.20 916.21 1027.20 764.21 1058.20 602.21 C 1089.21 440.21 1029.50 393.08 931.21 401.71 C 857.21 408.21 757.00 467.71 798.71 723.71 C 806.60 772.16 795.55 809.46 786.33 840.59 Z" fill="#6f5fdc" fill-rule="nonzero" group-id="3,10" node-id="99" stroke="none" target-height="541.4866" target-width="332.2072" target-x="757.0031" target-y="393.07742"></path><path d="M 590.89 417.33 C 603.69 403.79 635.61 382.25 668.71 387.71 C 720.40 396.25 703.73 541.51 690.78 570.97 C 689.75 573.32 689.68 576.14 691.01 578.33 C 741.44 661.81 625.85 763.71 510.71 763.71 C 393.90 763.71 284.71 683.95 284.71 583.71 C 284.71 540.07 296.42 492.55 332.57 468.72 C 344.71 460.71 363.05 466.25 373.71 458.71 C 384.37 451.17 390.21 435.21 408.21 424.71 C 464.85 391.68 555.16 407.50 582.16 419.13 C 585.08 420.39 588.71 419.65 590.89 417.33" fill="#6f5fdc" fill-rule="nonzero" group-id="3,11" node-id="104" stroke="none" target-height="381.46564" target-width="456.726" target-x="284.71045" target-y="382.24847"></path><path d="M 590.74 452.57 C 587.90 455.13 587.78 459.48 590.35 462.30 L 651.15 528.93 C 654.64 532.75 660.94 531.56 662.74 526.71 C 682.95 472.28 684.27 438.94 666.71 426.71 C 648.94 414.34 623.62 422.96 590.74 452.57 Z" fill="#000000" fill-rule="nonzero" group-id="3,12" node-id="109" stroke="none" target-height="118.418335" target-width="96.49878" target-x="587.7758" target-y="414.33667"></path><path d="M 442.95 545.00 C 403.95 545.00 369.45 601.79 386.45 664.26 C 403.45 726.74 465.00 803.00 591.00 819.00 C 717.00 835.00 814.00 761.71 819.50 707.50 C 825.00 653.29 737.50 657.55 690.50 664.26 C 635.55 672.11 554.50 641.00 526.00 616.50 C 480.46 577.35 481.96 545.00 442.95 545.00 Z" fill="#000000" fill-rule="nonzero" group-id="3,13" node-id="114" stroke="none" target-height="290" target-width="455.5537" target-x="369.4469" target-y="545"></path><path d="M 442.71 544.71 C 403.71 544.71 369.21 599.71 386.21 660.21 C 403.21 720.71 463.92 801.43 601.21 814.21 C 738.50 827.00 830.00 740.00 835.50 687.50 C 840.59 638.94 755.58 651.31 705.60 658.58 C 701.55 659.17 697.73 659.72 694.21 660.21 C 647.21 666.71 557.21 657.71 516.21 615.21 C 475.21 572.71 481.71 544.71 442.71 544.71 Z" fill="#6f5fdc" fill-rule="nonzero" group-id="3,14" node-id="119" stroke="none" target-height="282.28735" target-width="471.3772" target-x="369.21045" target-y="544.71265"></path><path d="M 409.71 584.71 C 409.71 588.72 411.64 593.26 415.49 598.34 C 417.30 600.72 420.52 600.80 421.23 597.89 C 422.32 593.45 422.22 586.73 421.21 582.71 C 419.71 576.71 409.71 577.21 409.71 584.71 Z" fill="#000000" fill-rule="nonzero" group-id="3,15" node-id="124" stroke="none" target-height="24.088257" target-width="12.612183" target-x="409.71048" target-y="576.71265"></path><path d="M 430.21 578.71 C 430.21 582.86 430.71 587.22 431.71 591.80 C 432.60 595.84 436.80 597.18 439.19 593.81 C 442.07 589.75 444.71 584.05 444.71 578.71 C 444.71 569.71 430.21 569.21 430.21 578.71 Z" fill="#000000" fill-rule="nonzero" group-id="3,16" node-id="129" stroke="none" target-height="27.966309" target-width="14.5" target-x="430.21045" target-y="569.2129"></path><path d="M 404.71 597.21 C 400.71 594.71 394.71 597.21 396.71 602.71 C 397.77 605.62 400.30 607.90 404.30 609.55 C 406.03 610.27 407.88 608.97 407.91 607.10 C 407.97 601.88 406.91 598.59 404.71 597.21 Z" fill="#000000" fill-rule="nonzero" group-id="3,17" node-id="134" stroke="none" target-height="15.555176" target-width="13.2621765" target-x="394.71042" target-y="594.7126"></path><path d="M 426.84 418.39 C 425.51 422.25 428.42 426.21 432.50 426.21 L 558.39 426.21 C 563.00 426.21 565.88 421.26 563.51 417.32 C 533.63 367.58 504.20 342.71 475.21 342.71 C 460.30 342.71 444.17 367.94 426.84 418.39 Z" fill="#6f5fdc" fill-rule="nonzero" group-id="3,18" node-id="139" stroke="none" target-height="83.50003" target-width="140.36993" target-x="425.5136" target-y="342.71262"></path><path d="M 408.56 633.41 C 406.90 637.60 410.02 641.97 414.52 642.24 L 445.05 644.07 C 450.09 644.38 453.79 639.43 451.68 634.86 C 444.99 620.43 437.50 613.21 429.21 613.21 C 420.79 613.21 413.91 619.94 408.56 633.41 Z" fill="#000000" fill-rule="nonzero" group-id="3,19" node-id="144" stroke="none" target-height="31.162537" target-width="46.89569" target-x="406.89844" target-y="613.21265"></path><path d="M 450.66 598.68 C 449.95 601.87 452.27 604.89 455.31 603.70 C 458.62 602.41 462.75 599.58 467.71 595.21 C 480.21 584.21 462.21 576.21 456.71 584.21 C 453.92 588.27 451.91 593.09 450.66 598.68 Z" fill="#000000" fill-rule="nonzero" group-id="3,20" node-id="149" stroke="none" target-height="28.67871" target-width="30.259857" target-x="449.9506" target-y="576.21277"></path><path d="M 362.73 473.86 C 355.84 472.04 346.70 473.10 346.00 477.33 C 345.29 481.55 349.33 491.42 358.53 493.42 C 370.01 495.98 376.65 486.24 376.55 482.38 C 376.46 478.51 369.62 475.69 362.73 473.86 Z" fill="#000000" fill-rule="nonzero" group-id="4" node-id="155" stroke="none" target-height="23.93512" target-width="31.362457" target-x="345.28592" target-y="472.04437"></path><path d="M 488.63 477.00 C 498.75 477.00 509.08 478.92 519.63 482.76 L 519.63 482.76 C 520.07 482.92 520.53 483.00 521.00 483.00 C 521.13 483.00 521.26 482.99 521.39 482.98 C 521.52 482.97 521.65 482.95 521.78 482.92 C 521.91 482.90 522.04 482.87 522.16 482.83 C 522.29 482.79 522.41 482.74 522.53 482.69 C 522.65 482.64 522.77 482.59 522.89 482.53 C 523.00 482.47 523.11 482.40 523.22 482.33 C 523.33 482.25 523.44 482.17 523.54 482.09 C 523.64 482.01 523.74 481.92 523.83 481.83 C 523.92 481.74 524.01 481.64 524.09 481.54 C 524.17 481.44 524.25 481.33 524.33 481.22 C 524.40 481.11 524.47 481.00 524.53 480.89 C 524.59 480.77 524.64 480.65 524.69 480.53 C 524.74 480.41 524.79 480.29 524.83 480.16 C 524.87 480.04 524.90 479.91 524.92 479.78 C 524.95 479.65 524.97 479.52 524.98 479.39 C 524.99 479.26 525.00 479.13 525.00 479.00 C 525.00 478.90 525.00 478.80 524.99 478.69 C 524.98 478.59 524.97 478.49 524.95 478.39 C 524.94 478.29 524.92 478.19 524.89 478.09 C 524.87 477.99 524.84 477.89 524.81 477.80 C 524.78 477.70 524.75 477.60 524.71 477.51 C 524.67 477.42 524.63 477.32 524.59 477.23 C 524.54 477.14 524.49 477.05 524.44 476.96 C 524.39 476.88 524.33 476.79 524.28 476.71 C 524.22 476.62 524.16 476.54 524.09 476.46 C 524.03 476.38 523.96 476.31 523.89 476.23 C 523.82 476.16 523.75 476.09 523.67 476.02 C 523.59 475.95 523.52 475.89 523.43 475.83 C 523.35 475.77 523.27 475.71 523.19 475.65 C 523.10 475.60 523.01 475.54 522.92 475.49 C 522.83 475.44 522.74 475.40 522.65 475.36 C 522.56 475.32 522.46 475.28 522.37 475.24 L 522.37 475.24 C 510.94 471.08 499.69 469.00 488.63 469.00 C 477.66 469.00 465.08 471.05 450.89 475.16 L 450.89 475.16 C 450.79 475.19 450.68 475.22 450.58 475.26 C 450.48 475.30 450.38 475.34 450.29 475.39 C 450.19 475.43 450.09 475.48 450.00 475.54 C 449.91 475.59 449.82 475.65 449.73 475.71 C 449.64 475.77 449.55 475.83 449.47 475.90 C 449.39 475.97 449.31 476.04 449.23 476.11 C 449.15 476.19 449.08 476.27 449.01 476.35 C 448.94 476.43 448.87 476.51 448.80 476.60 C 448.74 476.68 448.68 476.77 448.62 476.86 C 448.56 476.95 448.51 477.05 448.46 477.14 C 448.41 477.24 448.36 477.33 448.32 477.43 C 448.28 477.53 448.24 477.63 448.21 477.73 C 448.17 477.84 448.14 477.94 448.12 478.04 C 448.09 478.15 448.07 478.25 448.05 478.36 C 448.04 478.46 448.02 478.57 448.01 478.68 C 448.01 478.79 448.00 478.89 448.00 479.00 C 448.00 479.13 448.01 479.26 448.02 479.39 C 448.03 479.52 448.05 479.65 448.08 479.78 C 448.10 479.91 448.13 480.04 448.17 480.16 C 448.21 480.29 448.26 480.41 448.31 480.53 C 448.36 480.65 448.41 480.77 448.47 480.89 C 448.53 481.00 448.60 481.11 448.67 481.22 C 448.75 481.33 448.83 481.44 448.91 481.54 C 448.99 481.64 449.08 481.74 449.17 481.83 C 449.26 481.92 449.36 482.01 449.46 482.09 C 449.56 482.17 449.67 482.25 449.78 482.33 C 449.89 482.40 450.00 482.47 450.11 482.53 C 450.23 482.59 450.35 482.64 450.47 482.69 C 450.59 482.74 450.71 482.79 450.84 482.83 C 450.96 482.86 451.09 482.90 451.22 482.92 C 451.35 482.95 451.48 482.97 451.61 482.98 C 451.74 482.99 451.87 483.00 452.00 483.00 C 452.38 483.00 452.75 482.95 453.11 482.84 L 453.11 482.84 C 466.58 478.95 478.42 477.00 488.63 477.00 Z" fill="#000000" fill-rule="evenodd" group-id="5" node-id="160" stroke="none" target-height="13.999207" target-width="76.99841" target-x="448.0008" target-y="469"></path></g></svg>